<svg width="36" height="36" viewBox="0 0 36 36" fill="none" xmlns="http://www.w3.org/2000/svg">
    <rect width="36" height="36" fill="#1A1B21"/>
    <path d="M22.1871 28.0487L9.01011 25.8915L8 26.901L22.1871 29.2227L28 23.4124L26.9911 23.2478L22.1871 28.0487Z" fill="#FFFFFF"/>
    <path d="M22.1871 24.5274L28 18.7171L26.9911 18.5525L22.1871 23.3519L17.4855 22.5828L11.0278 21.5268L9.01011 21.1962L8 22.2056L10.019 22.5348L8 24.5521L22.1871 26.8739L28 21.0651L26.9911 20.9006L22.1884 25.7015L15.4665 24.6002L16.4753 23.5923L22.1871 24.5274Z" fill="#FFFFFF"/>
    <path d="M22.1871 21.0023L9.01011 18.8451L8 19.8544L22.1871 22.1763L28 16.3674L26.9911 16.2028L22.1871 21.0023Z" fill="#FFFFFF"/>
    <path d="M26.9911 11.5055L24.9721 13.5229L22.1871 16.3064L16.7409 15.415L9.01011 14.1492L8 15.1586L15.7307 16.423L14.7219 17.4324L9.00885 16.4972L8 17.5067L22.1871 19.8284L28 14.0196L25.981 13.6889L28 11.6701L26.9911 11.5055Z" fill="#FFFFFF"/>
    <path d="M28 9.32181L13.8129 7L8 12.8089L22.1871 15.1322L28 9.32181Z" fill="#FFFFFF"/>
</svg>